<svg xmlns="http://www.w3.org/2000/svg" fill="none" viewBox="0 0 512 512">
  <rect width="512" height="512" fill="#1F2125" rx="100"/>
  <path fill="#00C275" fill-rule="evenodd" d="M255.38 255.189a254.98 254.98 0 0 1-1.935 31.411H101v62.2h136.447a251.522 251.522 0 0 1-35.932 62.2H411v-62.2H237.447a250.584 250.584 0 0 0 15.998-62.2H411v-62.2H253.521a250.604 250.604 0 0 0-15.826-62.2H411V100H202.003a251.526 251.526 0 0 1 35.692 62.2H101v62.2h152.521a255 255 0 0 1 1.859 30.789Z" clip-rule="evenodd"/>
</svg>
